<svg height="400pt" viewBox="-14 0 400 400.182" width="400pt" xmlns="http://www.w3.org/2000/svg" xmlns:xlink="http://www.w3.org/1999/xlink">
    <linearGradient id="a">
        <stop offset="0" stop-color="#30bf8c" />
        <stop offset="1" stop-color="#1f7988" />
    </linearGradient>
    <linearGradient id="b" gradientTransform="matrix(.999543 0 0 -.999543 -13.285941 392.48104)" gradientUnits="userSpaceOnUse" x1="-20.0472" x2="409.36" xlink:href="#a" y1="192.5692" y2="192.5692" />
    <linearGradient id="c" gradientTransform="matrix(.999543 0 0 -.999543 -13.285941 392.48104)" gradientUnits="userSpaceOnUse" x1="-20.0472" x2="409.36" xlink:href="#a" y1="272.6057" y2="272.6057" />
    <linearGradient id="d" gradientTransform="matrix(.999543 0 0 -.999543 -13.285941 392.48104)" gradientUnits="userSpaceOnUse" x1="-20.0472" x2="409.36" xlink:href="#a" y1="115.8976" y2="115.8976" />
    <path d="m23.515625 327.660156c-3.058594-1.878906-7.054687-1.007812-9.054687 1.976563l-13.332032 20c-.960937 1.527343-1.277344 3.375-.871094 5.136719.410157 1.785156 1.503907 3.332031 3.046876 4.3125 10.71875 6.835937 69.941406 40.914062 183.371093 40.914062 124.722657 0 181.519531-39.558594 183.875-41.242188 2.929688-2.09375 3.667969-6.128906 1.671875-9.121093l-13.332031-20c-1.996094-2.988281-5.996094-3.859375-9.054687-1.976563-17.777344 9.46875-36.792969 16.402344-56.492188 20.605469v-14.933594h20c3.125 0 5.828125-2.167969 6.507812-5.21875l25.503907-114.78125h7.988281c3.679688 0 6.664062-2.984375 6.664062-6.664062v-40c0-3.683594-2.984374-6.667969-6.664062-6.667969h-113.335938v-153.332031c0-3.683594-2.984374-6.667969-6.664062-6.667969h-26.667969c-3.683593 0-6.667969 2.984375-6.667969 6.667969v6.664062h-20c-82.042968.101563-149.507812 64.703125-153.164062 146.667969h-6.835938c-3.679687 0-6.664062 2.984375-6.664062 6.667969v40c0 3.679687 2.984375 6.664062 6.664062 6.664062h7.988282l25.503906 114.78125c.679688 3.050781 3.382812 5.21875 6.507812 5.21875h20v14.933594c-19.699218-4.203125-38.714843-11.136719-56.492187-20.605469zm189.828125-314.328125h13.332031v146.667969h-13.332031zm-33.335938 13.335938h20v133.332031h-159.84375c3.644532-74.605469 65.152344-133.246094 139.84375-133.332031zm-153.332031 173.332031v-26.667969h13.332031v13.332031h13.335938v-13.332031h26.664062v13.332031h13.335938v-13.332031h26.664062v13.332031h13.335938v-13.332031h26.664062v13.332031h13.332032v-13.332031h26.667968v13.332031h13.332032v-13.332031h26.667968v13.332031h13.332032v-13.332031h26.667968v13.332031h13.332032v-13.332031h26.667968v13.332031h13.332032v-13.332031h13.332031v26.667969zm38.683594 120-23.707031-106.667969h290.046875l-23.707031 106.667969zm187.984375 13.332031v22.402344c-22.105469 2.902344-44.375 4.324219-66.667969 4.265625-22.292969.058594-44.5625-1.367188-66.667969-4.265625v-22.402344zm-168.089844 29.824219c3.597656.785156 7.152344-1.496094 7.933594-5.097656.101562-.464844.15625-.9375.15625-1.414063v-23.3125h13.332031v28.195313c0 3.304687 2.421875 6.109375 5.691407 6.59375 24.609374 3.546875 49.445312 5.289062 74.308593 5.210937 24.863281.078125 49.699219-1.664062 74.308594-5.210937 3.269531-.484375 5.691406-3.289063 5.691406-6.59375v-28.195313h13.332031v23.3125c.003907 3.683594 2.992188 6.667969 6.675782 6.664063.472656 0 .949218-.050782 1.414062-.152344 21.816406-4.378906 43.007813-11.449219 63.078125-21.054688l6.15625 9.238282c-16.453125 9.527344-70.28125 35.328125-170.65625 35.328125-96.277343 0-151.425781-24.898438-170.550781-35.492188l6.046875-9.074219c20.074219 9.605469 41.265625 16.675782 63.082031 21.054688zm0 0" fill="url(#b)" />
    <path d="m180.007812 93.332031c-3.679687 0-6.664062 2.984375-6.664062 6.667969v33.335938h-40c-3.683594 0-6.667969 2.984374-6.667969 6.664062 0 3.683594 2.984375 6.667969 6.667969 6.667969h46.664062c3.683594 0 6.667969-2.984375 6.667969-6.667969v-40c0-3.683594-2.984375-6.667969-6.667969-6.667969zm0 0" fill="url(#c)" />
    <path d="m260.007812 306.667969h33.335938c2.976562 0 5.589844-1.972657 6.40625-4.835938l13.335938-46.664062c1.042968-3.53125-.972657-7.242188-4.503907-8.285157-3.53125-1.046874-7.238281.972657-8.285156 4.5-.007813.039063-.019531.078126-.03125.117188l-11.953125 41.832031h-28.304688c-3.679687 0-6.664062 2.988281-6.664062 6.667969 0 3.683594 2.984375 6.667969 6.664062 6.667969zm0 0" fill="url(#d)" />
</svg>