<?xml version="1.0" encoding="UTF-8"?>
<svg xmlns="http://www.w3.org/2000/svg" xmlns:xlink="http://www.w3.org/1999/xlink" height="480pt" viewBox="0 0 480.00109 480" width="480pt">
   <linearGradient id="a">
        <stop offset="0" stop-color="#96999e" />
        <stop offset=".155" stop-color="#96999e" />
        <stop offset=".484" stop-color="#96999e" />
        <stop offset=".956" stop-color="#96999e" />
        <stop offset="1" stop-color="#96999e" />
    </linearGradient>
   <linearGradient id="b" gradientUnits="userSpaceOnUse" x1="-7.999453" x2="472.600547" xlink:href="#a" y1="84.000545" y2="84.000545" />
   <linearGradient id="c" gradientUnits="userSpaceOnUse" x1="-7.999453" x2="472.600547" xlink:href="#a" y1="220.000545" y2="220.000545" />
   <linearGradient id="d" gradientUnits="userSpaceOnUse" x1="-7.999453" x2="472.600547" xlink:href="#a" y1="152.000545" y2="152.000545" />
   <linearGradient id="e" gradientUnits="userSpaceOnUse" x1="-7.999453" x2="472.600547" xlink:href="#a" y1="108.000545" y2="108.000545" />
   <linearGradient id="f" gradientUnits="userSpaceOnUse" x1="-8.007453" x2="472.592547" xlink:href="#a" y1="204.000545" y2="204.000545" />
   <linearGradient id="g" gradientUnits="userSpaceOnUse" x1="-7.999453" x2="472.600547" xlink:href="#a" y1="196.000545" y2="196.000545" />
   <linearGradient id="h" gradientUnits="userSpaceOnUse" x1="-8.007453" x2="472.592547" xlink:href="#a" y1="100.000545" y2="100.000545" />
   <linearGradient id="i" gradientUnits="userSpaceOnUse" x1="-7.999453" x2="472.600547" xlink:href="#a" y1="240.000545" y2="240.000545" />
   <path d="m240 96c4.417969 0 8-3.582031 8-8v-8c0-4.417969-3.582031-8-8-8s-8 3.582031-8 8v8c0 4.417969 3.582031 8 8 8zm0 0" fill="url(#b)" />
   <path d="m240 208c-4.417969 0-8 3.582031-8 8v8c0 4.417969 3.582031 8 8 8s8-3.582031 8-8v-8c0-4.417969-3.582031-8-8-8zm0 0" fill="url(#c)" />
   <path d="m312 144h-8c-4.417969 0-8 3.582031-8 8s3.582031 8 8 8h8c4.417969 0 8-3.582031 8-8s-3.582031-8-8-8zm0 0" fill="url(#d)" />
   <path d="m184 152c0-4.417969-3.582031-8-8-8h-8c-4.417969 0-8 3.582031-8 8s3.582031 8 8 8h8c4.417969 0 8-3.582031 8-8zm0 0" fill="url(#d)" />
   <path d="m186.34375 117.65625c3.140625 3.03125 8.128906 2.988281 11.214844-.097656 3.085937-3.085938 3.128906-8.074219.097656-11.214844l-8-8c-3.140625-3.03125-8.128906-2.988281-11.214844.097656-3.085937 3.085938-3.128906 8.074219-.097656 11.214844zm0 0" fill="url(#e)" />
   <path d="m293.65625 194.34375c-3.140625-3.03125-8.128906-2.988281-11.214844.097656-3.085937 3.085938-3.128906 8.074219-.097656 11.214844l8 8c3.140625 3.03125 8.128906 2.988281 11.214844-.097656 3.085937-3.085938 3.128906-8.074219.097656-11.214844zm0 0" fill="url(#f)" />
   <path d="m186.34375 186.34375-8 8c-2.078125 2.007812-2.914062 4.984375-2.179688 7.78125.730469 2.796875 2.914063 4.980469 5.710938 5.714844 2.796875.730468 5.773438-.105469 7.78125-2.183594l8-8c3.03125-3.140625 2.988281-8.128906-.097656-11.214844-3.085938-3.085937-8.074219-3.128906-11.214844-.097656zm0 0" fill="url(#g)" />
   <path d="m288 112c2.121094 0 4.15625-.84375 5.65625-2.34375l8-8c3.03125-3.140625 2.988281-8.128906-.097656-11.214844-3.085938-3.085937-8.074219-3.128906-11.214844-.097656l-8 8c-2.285156 2.289062-2.96875 5.730469-1.734375 8.71875 1.238281 2.988281 4.15625 4.9375 7.390625 4.9375zm0 0" fill="url(#h)" />
   <path d="m240 112c-22.089844 0-40 17.910156-40 40 0 22.09375 17.910156 40 40 40 22.09375 0 40-17.90625 40-40-.027344-22.078125-17.917969-39.972656-40-40zm0 64c-13.253906 0-24-10.746094-24-24s10.746094-24 24-24 24 10.746094 24 24-10.746094 24-24 24zm0 0" fill="url(#d)" />
   <path d="m472 304c2.277344 0 4.441406-.96875 5.960938-2.664062 1.515624-1.691407 2.242187-3.953126 1.992187-6.214844l-32-288c-.449219-4.054688-3.875-7.121094-7.953125-7.121094h-400c-4.078125 0-7.503906 3.066406-7.953125 7.121094l-32 288c-.25 2.261718.476563 4.523437 1.992187 6.214844 1.519532 1.695312 3.6875 2.664062 5.960938 2.664062h200v120h-128c-4.417969 0-8 3.582031-8 8v40c0 4.417969 3.582031 8 8 8h320c4.417969 0 8-3.582031 8-8v-40c0-4.417969-3.582031-8-8-8h-128v-120zm-80 136v24h-304v-24zm-168-16v-120h32v120zm24-136v-24h-16v24h-96v-24h-16v24h-103.0625l14.261719-128h72.800781v-16h-71.0625l14.261719-128h72.800781v24h16v-24h96v24h16v-24h96v24h16v-24h72.800781l14.222657 128h-71.023438v16h72.800781l14.222657 128h-103.023438v-24h-16v24zm0 0" fill="url(#i)" />
</svg>