<?xml version="1.0"?>
<svg xmlns="http://www.w3.org/2000/svg" xmlns:xlink="http://www.w3.org/1999/xlink" viewBox="0 0 64 64" width="512" height="512">
    <defs>
        <linearGradient id="linear-gradient" x1="1" y1="32" x2="62.4" y2="32" gradientUnits="userSpaceOnUse">
            <stop offset="0" stop-color="#30bf8c" />
            <stop offset="0.155" stop-color="#1f7988" />
            <stop offset="0.484" stop-color="#30bf8c" />
            <stop offset="0.956" stop-color="#1f7988" />
            <stop offset="1" stop-color="#30bf8c" />
        </linearGradient>
        <linearGradient id="linear-gradient-2" y1="34" x2="62.4" y2="34" xlink:href="#linear-gradient" />
        <linearGradient id="linear-gradient-3" y1="35" x2="62.4" y2="35" xlink:href="#linear-gradient" />
    </defs>
    <g id="Gradient_outline" data-name="Gradient outline">
        <path d="M61,42H60V40.081a9.027,9.027,0,0,0-6.591-8.672L41.465,28.091l-9.8-7.837-3.961-3.961A1,1,0,0,0,27,16H22a1,1,0,0,0-.8,1.6l2.487,3.317C22.792,21.661,20.55,23,16,23A18.687,18.687,0,0,1,5.6,20.2a1,1,0,0,0-1.576.583l-2,9a1,1,0,0,0-.008.4L3.8,40H3a1,1,0,0,0-1,1v2a5.006,5.006,0,0,0,5,5H59a3,3,0,0,0,3-3V43A1,1,0,0,0,61,42ZM26.586,18l3.707,3.707c.026.026.054.051.082.074l1.35,1.08-2.432,2.432,1.414,1.414,2.59-2.589,1.206.965-2.21,2.21,1.414,1.414,2.367-2.367,1.207.965-1.988,1.988,1.414,1.414,2.145-2.145,1.118.894c-.3,2.224-2.733,3.16-3.739,3.454l-12.35-9.7a6.268,6.268,0,0,0,1.951-1.651A1,1,0,0,0,25.8,20.4L24,18ZM5.673,22.582A21.889,21.889,0,0,0,16,25a17.914,17.914,0,0,0,5.827-.864l13.555,10.65A1,1,0,0,0,36,35a.932.932,0,0,0,.2-.02c1.769-.353,4.923-1.769,5.649-4.708l11.029,3.064A7.022,7.022,0,0,1,58,40.081V42H54.618L55.9,39.447l-1.79-.894L52.382,42H49.618L50.9,39.447l-1.79-.894L47.382,42H44.618L45.9,39.447A1,1,0,0,0,45,38H35.346L21.618,27.214A1,1,0,0,0,21,27H14a1,1,0,0,0-.62,1.785L30.12,42H25.236L21.73,40.247C17.287,31.776,7.56,29.633,4.216,29.139l.623-2.8,4.845,1.615.632-1.9-5.041-1.68ZM42.382,42H33.347L16.88,29h3.774L34.382,39.786A1,1,0,0,0,35,40h8.382ZM4.23,31.174c3.1.517,10.934,2.427,15.045,8.826H5.834ZM60,45a1,1,0,0,1-1,1H7a3,3,0,0,1-3-3V42H20.764l3.789,1.9A1,1,0,0,0,25,44H60Z" style="fill:url(#linear-gradient)" />
        <rect x="43" y="33" width="2" height="2" style="fill:url(#linear-gradient-2)" />
        <rect x="47" y="34" width="2" height="2" style="fill:url(#linear-gradient-3)" />
    </g>
</svg>