<?xml version="1.0" encoding="iso-8859-1"?>
<!-- Generator: Adobe Illustrator 19.0.0, SVG Export Plug-In . SVG Version: 6.00 Build 0)  -->
<svg xmlns="http://www.w3.org/2000/svg" xmlns:xlink="http://www.w3.org/1999/xlink" version="1.1" id="Capa_1" x="0px" y="0px" viewBox="0 0 512 512" style="enable-background:new 0 0 512 512;" xml:space="preserve">
<g>
	
		<linearGradient id="SVGID_1_" gradientUnits="userSpaceOnUse" x1="-45.9118" y1="606.7109" x2="19.3322" y2="606.7109" gradientTransform="matrix(8.5333 0 0 -8.5333 369.1334 5433.2671)">
		<stop offset="0" style="stop-color: #30bf8c;"/>
		<stop offset="0.503" style="stop-color: #0ea28c;"/>
		<stop offset="1" style="stop-color: #1f7988;"/>
	</linearGradient>
	<path style="fill:url(#SVGID_1_);" d="M469.333,170.667h-25.6V128c-0.026-23.552-19.115-42.641-42.667-42.667H290.133   c-13.483,0.034-26.146,6.468-34.133,17.331c-7.987-10.863-20.651-17.297-34.133-17.331H110.933   C87.381,85.359,68.292,104.448,68.267,128v42.667h-25.6C19.115,170.692,0.026,189.781,0,213.333v162.133h34.133v51.2h85.333v-51.2   h273.067v51.2h85.333v-51.2H512V213.333C511.974,189.781,492.885,170.692,469.333,170.667z M264.533,128   c0-14.14,11.46-25.6,25.6-25.6h110.933c14.14,0,25.6,11.46,25.6,25.6v93.867H264.533V128z M85.333,128   c0-14.14,11.46-25.6,25.6-25.6h110.933c14.14,0,25.6,11.46,25.6,25.6v93.867H85.333V128z M85.333,238.933h341.333v51.2H85.333   V238.933z M102.4,409.6H51.2v-34.133h51.2V409.6z M460.8,409.6h-51.2v-34.133h51.2V409.6z M494.933,358.4H17.067V213.333   c0-14.14,11.46-25.6,25.6-25.6h25.6V307.2h375.467V187.733h25.6c14.14,0,25.6,11.46,25.6,25.6V358.4z"/>
	
		<linearGradient id="SVGID_2_" gradientUnits="userSpaceOnUse" x1="-45.9118" y1="609.7109" x2="19.3322" y2="609.7109" gradientTransform="matrix(8.5333 0 0 -8.5333 369.1334 5433.2671)">
		<stop offset="0" style="stop-color: #30bf8c;"/>
		<stop offset="0.503" style="stop-color: #30bf8c;"/>
		<stop offset="1" style="stop-color: #1f7988;"/>
	</linearGradient>
	<rect x="34.133" y="221.867" style="fill:url(#SVGID_2_);" width="17.067" height="17.067"/>
	
		<linearGradient id="SVGID_3_" gradientUnits="userSpaceOnUse" x1="-45.9118" y1="609.7109" x2="19.3322" y2="609.7109" gradientTransform="matrix(8.5333 0 0 -8.5333 369.1334 5433.2671)">
		<stop offset="0" style="stop-color: #1f7988;"/>
		<stop offset="0.503" style="stop-color: #1f7988;"/>
		<stop offset="1" style="stop-color: #1f7988;"/>
	</linearGradient>
	<rect x="460.8" y="221.867" style="fill:url(#SVGID_3_);" width="17.067" height="17.067"/>
</g>
<g>
</g>
<g>
</g>
<g>
</g>
<g>
</g>
<g>
</g>
<g>
</g>
<g>
</g>
<g>
</g>
<g>
</g>
<g>
</g>
<g>
</g>
<g>
</g>
<g>
</g>
<g>
</g>
<g>
</g>
</svg>
